<svg width="25" height="25" viewBox="0 0 25 25" fill="none" xmlns="http://www.w3.org/2000/svg">
<g clip-path="url(#clip0_11_59)">
<path d="M22.5 3.74994H11.25V4.58327H22.5V3.74994Z" fill="black"/>
<path d="M18.3333 5.4165H11.25V6.24984H18.3333V5.4165Z" fill="black"/>
<path d="M18.3333 7.08325H11.25V7.91659H18.3333V7.08325Z" fill="black"/>
<path d="M22.5 2.08319H14.5833V2.91652H22.5V2.08319Z" fill="black"/>
<path d="M13.75 2.08319H12.9167V2.91652H13.75V2.08319Z" fill="black"/>
<path d="M12.9167 16.6666H12.0833V17.4999H12.9167V16.6666Z" fill="black"/>
<path d="M6.96126 2.79449L6.37209 2.20532L5.53876 3.03866C5.3761 3.20136 5.3761 3.46511 5.53876 3.62782L6.37209 4.46115L6.96126 3.87199L6.42251 3.33324L6.96126 2.79449Z" fill="black"/>
<path d="M10.2946 3.03866L9.46124 2.20532L8.87207 2.79449L9.41082 3.33324L8.87207 3.87199L9.46124 4.46115L10.2946 3.62782C10.4572 3.46511 10.4572 3.20136 10.2946 3.03866Z" fill="black"/>
<path d="M7.93833 1.95097L7.10422 4.45093L7.89432 4.71455L8.72843 2.21459L7.93833 1.95097Z" fill="black"/>
<path d="M21.6667 12.9165V9.58315H20.8334V12.9165H20V8.74982H19.1667V12.9165H18.3334V10.8332H17.5V12.9165H16.6667V10.4165H15.8334V12.9165H15V11.2498H14.1667V12.9165H13.3334V13.7498H22.5V12.9165H21.6667Z" fill="black"/>
<path d="M22.0833 -0.00012207H2.91667C1.53652 0.0012321 0.418026 1.11972 0.416672 2.49988V10.6774V10.6811V15.4165V16.6665C0.418026 18.0467 1.53652 19.1652 2.91667 19.1665H8.07584L6.40917 22.4999H4.16667C3.47631 22.4999 2.91667 23.0595 2.91667 23.7499C2.91667 24.4402 3.47631 24.9999 4.16667 24.9999H20.8333C21.5237 24.9999 22.0833 24.4402 22.0833 23.7499C22.0833 23.0595 21.5237 22.4999 20.8333 22.4999H18.5908L16.9242 19.1665H22.0833C23.4635 19.1652 24.582 18.0467 24.5833 16.6665V2.49988C24.582 1.11972 23.4635 0.0012321 22.0833 -0.00012207ZM1.25001 5.86238L2.19709 6.98988C2.27625 7.0842 2.39313 7.13863 2.51626 7.13863H3.79167C3.9148 7.13863 4.03167 7.0842 4.11084 6.98988L5.05834 5.86238L5.99334 6.16613L6.09667 7.63404C6.10521 7.7568 6.16761 7.86951 6.26709 7.94196L7.29917 8.69196C7.39902 8.76404 7.52547 8.78858 7.645 8.75904L9.07542 8.40363L9.65376 9.19904L8.87417 10.449C8.80959 10.5538 8.79464 10.6818 8.83334 10.7986L9.22792 12.0115C9.26589 12.1285 9.35355 12.2228 9.4675 12.269L10.8333 12.8228V13.8061L9.46667 14.3599C9.35245 14.4059 9.26464 14.5005 9.22709 14.6178L9.10209 14.9999H6.70167C7.63542 13.0449 6.8075 10.7031 4.8525 9.7693C3.70422 9.22087 2.3612 9.26347 1.25001 9.88363V5.86238ZM1.25001 10.8749C2.59771 9.82347 4.54261 10.0637 5.59396 11.4114C6.40573 12.452 6.46839 13.8928 5.75001 14.9999H1.25001V10.8749ZM20.8333 23.3332C21.0634 23.3332 21.25 23.5198 21.25 23.7499C21.25 23.98 21.0634 24.1665 20.8333 24.1665H4.16667C3.93657 24.1665 3.75001 23.98 3.75001 23.7499C3.75001 23.5198 3.93657 23.3332 4.16667 23.3332H20.8333ZM17.6592 22.4999H7.34084L9.0075 19.1665H15.9925L17.6592 22.4999ZM23.75 16.6665C23.75 17.587 23.0038 18.3332 22.0833 18.3332H2.91667C1.9962 18.3332 1.25001 17.587 1.25001 16.6665V15.8332H5.9675H5.97126H23.75V16.6665ZM23.75 14.9999H10.1063L11.4067 14.4728C11.5638 14.409 11.6666 14.2565 11.6667 14.087V12.5415C11.6667 12.3719 11.5639 12.2191 11.4067 12.1553L9.95834 11.5695L9.68417 10.7257L10.51 9.40071C10.5996 9.25675 10.593 9.0729 10.4933 8.93571L9.585 7.68571C9.48526 7.54837 9.31224 7.48524 9.1475 7.52613L7.63251 7.90113L6.91667 7.38113L6.80709 5.82696C6.79516 5.65753 6.68157 5.51227 6.52 5.45988L5.05126 4.98238C4.88964 4.93092 4.71297 4.9817 4.60334 5.11113L3.60042 6.30488H2.71167L1.70834 5.11113C1.59865 4.98154 1.42172 4.93071 1.26001 4.98238L1.25001 4.98613V2.49988C1.25001 1.57941 1.9962 0.833211 2.91667 0.833211H22.0833C23.0038 0.833211 23.75 1.57941 23.75 2.49988V14.9999Z" fill="black"/>
</g>
<defs>
<clipPath id="clip0_11_59">
<rect width="25" height="25" fill="white"/>
</clipPath>
</defs>
</svg>
