<svg width="19" height="20" viewBox="0 0 19 20" fill="none" xmlns="http://www.w3.org/2000/svg">
<path d="M-4.37114e-07 9.99945C-1.95608e-07 15.5245 4.36167 19.9995 9.74107 19.9995C14.0457 19.9995 17.6962 17.1345 18.9832 13.162C19.0749 12.662 18.7734 12.4786 18.5148 12.4786C18.2835 12.4786 17.6706 12.487 16.8585 12.4911C17.4459 15.2728 15.5517 15.8595 15.5517 15.8595C14.4274 16.3145 14.1267 16.972 14.1267 16.972C13.5228 17.8778 13.5352 16.902 13.5352 16.902C13.603 15.8978 14.5389 15.3703 14.5389 15.3703C16.0283 14.4786 15.5979 13.0295 15.3493 12.4578C14.719 12.3678 14.2903 12.1103 14.0466 11.8244C13.8029 14.0453 12.9652 16.3795 9.23304 16.3795C8.16988 16.3795 7.30085 15.992 6.61933 15.3503C6.37316 15.4628 5.3827 15.8003 4.04116 15.2628C4.04116 15.2628 3.78012 14.4253 5.03988 12.5128C4.82345 11.7128 4.71606 10.8628 4.7111 10.0128C4.71606 9.16278 4.82345 8.31278 5.03988 7.51278C3.78012 5.61278 4.04116 4.77528 4.04116 4.77528C5.3827 4.23778 6.37316 4.57528 6.61933 4.67528C7.30085 4.03778 8.16988 3.65029 9.23304 3.65029C12.9752 3.65029 13.7987 5.98778 14.0383 8.21278C14.3307 7.86278 14.928 7.53778 15.8408 7.53778C17.1444 7.53778 18.1918 7.55028 18.5082 7.55028C18.7635 7.55028 19.0683 7.37528 18.9708 6.86278C17.692 2.86195 14.0391 -0.00054993 9.74107 -0.000549742C4.36167 -0.000549507 -6.7851e-07 4.47695 -4.37114e-07 9.99945Z" fill="#212121"/>
</svg>
