<svg width="30" height="30" viewBox="0 0 30 30" fill="none" xmlns="http://www.w3.org/2000/svg">
<path d="M25.6055 -0.000244141L4.39453 -0.000244141C1.97159 -0.000244141 0 1.97134 0 4.39429L0 25.6052C0 28.0282 1.97159 29.9998 4.39453 29.9998L13.2422 29.9998L13.2422 19.3943L9.72656 19.3943L9.72656 14.1208H13.2422V10.5466C13.2422 7.63869 15.6077 5.27319 18.5156 5.27319L23.8477 5.27319V10.5466H18.5156L18.5156 14.1208H23.8477L22.9687 19.3943H18.5156V29.9998H25.6055C28.0284 29.9998 30 28.0282 30 25.6052L30 4.39429C30 1.97134 28.0284 -0.000244141 25.6055 -0.000244141Z" fill="black"/>
</svg>
