<svg width="30" height="30" viewBox="0 0 30 30" fill="none" xmlns="http://www.w3.org/2000/svg">
<path d="M15 29.9998C23.2863 29.9998 30 23.286 30 14.9998C30 6.71351 23.2863 -0.000244141 15 -0.000244141C6.71375 -0.000244141 0 6.71351 0 14.9998C0 23.286 6.71375 29.9998 15 29.9998ZM6.86375 14.6748L21.3263 9.09851C21.9975 8.85601 22.5837 9.26226 22.3662 10.2773L22.3675 10.276L19.905 21.8773C19.7225 22.6998 19.2337 22.8998 18.55 22.5123L14.8 19.7485L12.9912 21.491C12.7912 21.691 12.6225 21.8598 12.235 21.8598L12.5013 18.0435L19.4513 11.7648C19.7537 11.4985 19.3837 11.3485 18.985 11.6135L10.3963 17.021L6.69375 15.866C5.89 15.611 5.8725 15.0623 6.86375 14.6748Z" fill="black"/>
</svg>
