<svg width="160" height="45" viewBox="0 0 160 45" fill="none" xmlns="http://www.w3.org/2000/svg">
<path fill-rule="evenodd" clip-rule="evenodd" d="M148.973 18.573C148.829 18.6015 148.685 18.9145 148.685 19.085C148.656 20.2227 148.627 23.2378 148.627 25.2856C148.627 25.3426 148.713 25.4562 148.8 25.4562C149.232 25.4847 150.271 25.5131 151.165 25.5131C152.405 25.5131 153.126 25.3426 153.529 25.172C154.567 24.66 155.058 23.5505 155.058 22.3274C155.058 19.5686 153.097 18.5161 150.184 18.5161C149.982 18.4879 149.406 18.4879 148.973 18.573ZM156.413 31.2871C156.413 28.4713 154.308 26.9068 150.501 26.9068C150.328 26.9068 149.117 26.8783 148.829 26.9353C148.742 26.9637 148.627 27.0207 148.627 27.1061C148.627 29.1254 148.598 32.3396 148.685 33.5909C148.742 34.1314 149.146 34.8994 149.636 35.1269C150.155 35.4114 151.338 35.4681 152.145 35.4681C154.423 35.4681 156.413 34.2168 156.413 31.2871ZM143.09 17.0088C143.378 17.0088 144.243 17.0939 146.464 17.0939C148.569 17.0939 150.242 17.0373 152.289 17.0373C154.798 17.0373 158.259 17.9189 158.259 21.6164C158.259 23.4369 156.961 24.8875 155.259 25.5986C155.173 25.627 155.173 25.6837 155.259 25.7122C157.682 26.3096 159.816 27.7887 159.816 30.576C159.816 33.3067 158.086 35.0415 155.577 36.1225C154.048 36.7766 152.145 37.0041 150.213 37.0041C148.742 37.0041 144.791 36.8335 142.6 36.8905C142.369 36.8051 142.802 35.781 143.003 35.6105C143.523 35.582 143.926 35.5535 144.474 35.3829C145.253 35.1839 145.339 34.9563 145.455 33.7902C145.512 32.7947 145.512 29.2675 145.512 26.7647C145.512 23.323 145.541 20.9907 145.512 19.8531C145.484 18.9714 145.166 18.6869 144.532 18.5161C144.042 18.4309 143.234 18.317 142.571 18.2319C142.427 18.0895 142.917 17.1224 143.09 17.0088ZM126.45 34.7003C127.143 35.2406 128.498 35.4681 129.709 35.4681C131.266 35.4681 132.824 35.1839 134.323 33.8469C135.852 32.4817 136.919 30.377 136.919 27.0207C136.919 23.8065 135.679 21.1898 133.141 19.654C131.699 18.7721 129.853 18.4025 127.719 18.4025C127.085 18.4025 126.479 18.4309 126.104 18.6015C126.018 18.6585 125.816 18.9145 125.816 19.0566C125.758 19.6255 125.758 24.0056 125.758 26.5656C125.758 29.2108 125.758 32.9083 125.816 33.3349C125.816 33.7617 126.018 34.4159 126.45 34.7003ZM119.904 17.0088C120.452 17.0088 122.557 17.0939 123.567 17.0939C125.383 17.0939 126.681 17.0088 130.113 17.0088C132.997 17.0088 135.419 17.7768 137.149 19.2272C139.254 21.0192 140.35 23.4938 140.35 26.5087C140.35 30.8036 138.36 33.2782 136.371 34.7003C134.381 36.151 131.785 37.0041 128.094 37.0041C126.133 37.0041 122.759 36.9472 119.962 36.9187H119.933C119.789 36.663 120.164 35.6674 120.394 35.6389C121.144 35.5535 121.346 35.525 121.721 35.3829C122.326 35.1554 122.442 34.8424 122.529 33.7902C122.615 31.8276 122.586 29.4669 122.586 26.7932C122.586 24.8875 122.615 21.1613 122.557 19.9667C122.471 18.9714 122.038 18.7154 121.173 18.5446C120.74 18.4594 120.164 18.3455 119.356 18.2603C119.241 18.061 119.76 17.1794 119.904 17.0088Z" fill="#8E714E"/>
<path fill-rule="evenodd" clip-rule="evenodd" d="M85.0103 35.8096C84.2894 35.7242 83.7703 35.6106 83.1357 35.3261C83.0493 35.2691 82.905 34.9849 82.905 34.871C82.8472 33.8755 82.8472 31.0312 82.8472 29.1255C82.8472 27.5895 82.5879 26.2528 81.9245 25.3142C81.1458 24.2332 80.0212 23.6075 78.5793 23.6075C77.3104 23.6075 75.6089 24.461 74.1959 25.6556C74.167 25.6838 73.9363 25.8831 73.9652 25.5702C73.9652 25.2572 74.0229 24.6316 74.0518 24.205C74.0807 23.8066 73.85 23.6075 73.85 23.6075C72.927 24.0626 70.3316 24.66 69.38 24.7452C68.6879 24.8876 68.515 25.5417 69.2359 25.7692H69.2648C70.0432 25.9968 70.5623 26.2528 70.966 26.5088C71.2544 26.7363 71.2255 27.0493 71.2255 27.3053C71.2544 29.4385 71.2544 32.7093 71.168 34.5014C71.1392 35.2124 70.9373 35.4682 70.4182 35.5821L70.4757 35.5536C70.0721 35.639 69.7548 35.7242 69.2645 35.7811C69.0915 35.9517 69.0915 36.8621 69.2645 37.0612C69.5818 37.0612 71.2544 36.9757 72.6388 36.9757C74.5421 36.9757 75.5226 37.0612 76.0128 37.0612C76.2146 36.8336 76.2724 35.9802 76.1569 35.7811C75.6089 35.7527 75.2053 35.696 74.8305 35.5821C74.3114 35.4682 74.167 35.2124 74.1382 34.615C74.0807 33.1074 74.0807 29.922 74.0807 27.7603C74.0807 27.1629 74.2536 26.8784 74.4266 26.7078C75.0898 26.1391 76.1569 25.7408 77.1085 25.7408C78.0313 25.7408 78.637 26.0252 79.0984 26.3951C79.7328 26.9069 79.9346 27.6464 80.0212 28.1869C80.1653 29.41 80.1078 31.8277 80.1078 33.9324C80.1078 35.0701 80.0212 35.3546 79.5887 35.4967C79.3869 35.5821 78.8677 35.696 78.262 35.7527C78.0602 35.9517 78.1179 36.8336 78.262 37.0327C79.0984 37.0327 80.0789 36.9473 81.5208 36.9473C83.3086 36.9473 84.4623 37.0327 84.9237 37.0327C85.0678 36.8621 85.1255 36.0371 85.0101 35.8096H85.0103ZM92.9985 24.9445C91.47 24.9445 90.5183 26.1107 90.5183 27.9309C90.5183 29.7796 91.3545 31.9128 93.7194 31.9128C94.123 31.9128 94.8729 31.7423 95.2188 31.3441C95.7668 30.8321 96.1418 29.8081 96.1418 28.7274C96.1418 26.3667 94.9592 24.9445 92.9985 24.9445ZM92.7964 37.5162C92.2198 37.5162 91.8159 37.6868 91.5566 37.8292C90.3451 38.5969 89.7974 39.3365 89.7974 40.2184C89.7974 41.0431 90.1144 41.6972 90.8068 42.2662C91.6429 42.9772 92.7964 43.3187 94.2671 43.3187C97.2086 43.3187 98.5064 41.7542 98.5064 40.2184C98.5064 39.1374 97.9585 38.4264 96.8339 38.0282C96.0263 37.6868 94.5556 37.5162 92.7964 37.5162ZM92.9985 44.9114C91.2393 44.9114 89.9703 44.5415 88.8746 43.7168C87.8075 42.9203 87.3461 41.7257 87.3461 40.901C87.3461 40.6735 87.4039 40.0475 87.923 39.4789C88.24 39.1374 88.9321 38.4833 90.5761 37.3741C90.6335 37.3456 90.6624 37.3172 90.6624 37.2602C90.6624 37.2033 90.6047 37.1463 90.5472 37.1181C89.1917 36.6061 88.788 35.7811 88.6725 35.3261V35.2691C88.6439 35.0985 88.5862 34.928 88.8457 34.7571C89.0476 34.615 89.336 34.4444 89.653 34.2454C90.1433 33.9609 90.6624 33.6479 90.9797 33.3919C91.0375 33.335 91.0374 33.2783 91.0374 33.2213C91.0374 33.1644 90.9797 33.1074 90.922 33.0792C88.9035 32.4249 87.8941 30.9458 87.8941 28.7274C87.8941 27.2768 88.5573 25.9683 89.7396 25.1436C90.5472 24.5177 92.5657 23.7499 93.8924 23.7499H93.979C95.3342 23.7781 96.0841 24.0626 97.1509 24.4325C97.7278 24.6316 98.2758 24.7167 99.0256 24.7167C100.15 24.7167 100.64 24.3756 101.044 23.9774C101.073 24.0341 101.131 24.1765 101.16 24.5461C101.188 24.916 101.073 25.4563 100.784 25.8546C100.554 26.1673 100.035 26.3951 99.5158 26.3951H99.3715C98.8524 26.3382 98.6217 26.2812 98.6217 26.2812L98.5064 26.3382C98.4776 26.3951 98.5064 26.4518 98.5353 26.5372L98.5642 26.5942C98.6217 26.8502 98.7371 27.618 98.7371 27.8173C98.7371 30.1495 97.7855 31.1733 96.7761 31.9413C95.7956 32.6524 94.671 33.1074 93.4021 33.2213C93.3732 33.2213 93.258 33.2213 92.9985 33.2498C92.8541 33.2498 92.6523 33.2783 92.6234 33.2783H92.5946C92.3639 33.335 91.7873 33.6195 91.7873 34.103C91.7873 34.5296 92.0468 35.0416 93.2866 35.127C93.5462 35.1555 93.8057 35.1555 94.0942 35.184C95.7379 35.2976 97.7855 35.44 98.7371 35.7527C100.064 36.2362 100.9 37.4023 100.9 38.7963C100.9 40.901 99.3715 42.8636 96.8339 44.0864C95.5938 44.6269 94.3537 44.9114 92.9985 44.9114ZM109.436 25.0866C108.83 25.0866 108.282 25.2287 107.879 25.5132C106.754 26.1958 106.177 27.5613 106.177 29.5521C106.177 33.2783 108.081 35.895 110.791 35.895C111.599 35.895 112.233 35.6675 112.781 35.2124C113.617 34.5296 114.05 33.1644 114.05 31.2587C114.05 27.5613 112.176 25.0866 109.436 25.0866ZM109.955 37.2602C105.053 37.2602 103.294 33.7049 103.294 30.3771C103.294 28.0448 104.245 26.2528 106.148 24.9727C107.504 24.148 109.119 23.693 110.561 23.693C114.309 23.693 116.934 26.3382 116.934 30.1495C116.934 32.7378 115.896 34.7856 113.906 36.0371C112.954 36.6628 111.311 37.2602 109.955 37.2602H109.955ZM58.5658 25.0866C57.9601 25.0866 57.4124 25.2287 57.0084 25.5132C55.8839 26.1958 55.307 27.5613 55.307 29.5521C55.307 33.2783 57.2103 35.895 59.9211 35.895C60.7286 35.895 61.363 35.6675 61.911 35.2124C62.7471 34.5296 63.1799 33.1644 63.1799 31.2587C63.1799 27.5613 61.3341 25.0866 58.5658 25.0866ZM59.0849 37.2602C54.1824 37.2602 52.4232 33.7049 52.4232 30.3771C52.4232 28.0448 53.3749 26.2528 55.2781 24.9727C56.6337 24.148 58.2485 23.693 59.6904 23.693C63.4395 23.693 66.0637 26.3382 66.0637 30.1495C66.0637 32.7378 65.0254 34.7856 63.0356 36.0371C62.1128 36.6628 60.4691 37.2602 59.0849 37.2602ZM26.1231 36.9757C26.0653 36.8906 26.0076 36.6346 26.0364 36.3216C26.0364 36.0941 26.0942 35.9517 26.1231 35.895C26.7285 35.8096 27.0458 35.7242 27.3917 35.639C27.9686 35.4967 28.1993 35.184 28.2281 34.4729C28.3148 32.7663 28.3148 29.5236 28.2859 27.2768V27.2198C28.2859 26.9638 28.2859 26.6509 27.9686 26.4233C27.5072 26.1391 26.9592 25.8831 26.2383 25.6838C25.9787 25.5986 25.8058 25.4563 25.8346 25.2857C25.8346 25.1151 26.0076 24.916 26.3826 24.8591C27.3343 24.7737 29.8141 24.1765 30.7946 23.7499C30.8524 23.8066 30.939 23.9774 30.939 24.205L30.9101 24.5177C30.8812 24.8306 30.8524 25.2005 30.8524 25.5702C30.8524 25.6838 30.9678 25.7692 31.0831 25.7692C31.1408 25.7692 31.1985 25.7408 31.2563 25.7123C33.1018 24.2901 34.7744 23.7781 35.6394 23.7781C37.0527 23.7781 38.1484 24.4325 38.9848 25.7977C39.0423 25.8831 39.1 25.9113 39.1867 25.9113C39.2444 25.9113 39.3307 25.8831 39.3596 25.8262C41.0611 24.5461 42.7625 23.7781 43.8871 23.7781C46.5691 23.7781 48.1553 25.7408 48.1553 29.0686C48.1553 30.0072 48.1553 31.2302 48.1264 32.3397C48.1264 33.335 48.0976 34.2454 48.0976 34.8995C48.0976 35.0416 48.2994 35.4967 48.6167 35.5821C49.0203 35.7811 49.5683 35.8666 50.2893 35.9802H50.3181C50.3759 36.1793 50.2604 36.9188 50.1452 37.0612C49.972 37.0612 49.7124 37.0612 49.4242 37.0327C48.8762 37.0042 48.0976 36.9757 47.2325 36.9757C45.4445 36.9757 44.5217 37.0042 43.6275 37.0612C43.5701 36.8336 43.5412 36.151 43.6275 35.9802C44.1467 35.895 44.4062 35.8096 44.7235 35.7242C45.3004 35.5536 45.4445 35.2976 45.4733 34.5581C45.4733 34.0178 45.5885 29.41 45.4156 28.3005C45.2426 27.1629 44.3774 25.8262 42.4741 25.8262C41.7531 25.8262 40.6285 26.1107 39.5326 26.9354C39.4751 26.9923 39.4174 27.1344 39.4174 27.2198V27.2483C39.5326 27.8455 39.5326 28.5283 39.5326 29.5806V31.4293C39.5326 32.7093 39.5037 33.9039 39.5326 34.8141C39.5326 35.44 39.9076 35.5821 40.2249 35.696C40.3979 35.7242 40.5131 35.7527 40.6574 35.7811C40.917 35.8381 41.1765 35.895 41.5802 35.9802C41.6379 36.0941 41.6379 36.4637 41.5513 36.7767C41.5224 36.9473 41.4647 37.0327 41.4361 37.0612C40.4556 37.0327 39.4462 37.0042 37.9755 37.0042C37.543 37.0042 36.7931 37.0327 36.1585 37.0327C35.6394 37.0327 35.1492 37.0612 34.861 37.0612C34.8321 37.0042 34.7744 36.8052 34.7744 36.4922C34.7744 36.2362 34.8321 36.0371 34.8899 35.9802C35.0339 35.9517 35.1492 35.9235 35.2935 35.9235C35.6394 35.8666 35.9278 35.8096 36.2163 35.7527C36.7065 35.6106 36.8795 35.3546 36.9083 34.7289C36.995 33.3068 37.0813 29.2394 36.8795 28.2154C36.5336 26.5657 35.5819 25.7408 34.0534 25.7408C33.1595 25.7408 32.0347 26.1673 31.1119 26.8502C30.9678 26.9638 30.8524 27.2483 30.8524 27.5043V29.1825C30.8524 31.2302 30.8524 33.7903 30.8812 34.8995C30.9101 35.2407 31.0253 35.639 31.6888 35.7811C31.8329 35.8096 32.0636 35.8666 32.352 35.895L32.8711 35.9802C32.9289 36.151 32.9 36.8336 32.7845 37.0612C32.4961 37.0612 32.1502 37.0327 31.7463 37.0327C31.1408 37.0042 30.3621 36.9757 29.4971 36.9757C28.4877 36.9757 27.7668 37.0042 27.1899 37.0327C26.7863 36.9757 26.469 36.9757 26.1231 36.9757Z" fill="#442D22"/>
<path fill-rule="evenodd" clip-rule="evenodd" d="M10.9541 43.8024L9.77175 43.404C9.77175 43.404 9.9161 37.4594 7.75327 37.0329C6.31138 35.3832 7.98396 -32.9369 13.1746 36.8053C13.1746 36.8053 11.3869 37.687 11.0696 39.1945C10.7234 40.6736 10.9541 43.8024 10.9541 43.8024Z" fill="white"/>
<path fill-rule="evenodd" clip-rule="evenodd" d="M10.9541 43.8024L9.77175 43.404C9.77175 43.404 9.9161 37.4594 7.75327 37.0329C6.31138 35.3832 7.98396 -32.9369 13.1746 36.8053C13.1746 36.8053 11.3869 37.687 11.0696 39.1945C10.7234 40.6736 10.9541 43.8024 10.9541 43.8024Z" fill="#A6A385"/>
<path fill-rule="evenodd" clip-rule="evenodd" d="M11.5887 38.0565C11.5887 38.0565 21.9415 31.344 19.5191 17.3783C17.1833 7.22433 11.6751 3.89652 11.0696 2.61649C10.4064 1.70637 9.77179 0.113647 9.77179 0.113647L10.2046 28.3573C10.2046 28.3858 9.31041 37.0041 11.5887 38.0565Z" fill="white"/>
<path fill-rule="evenodd" clip-rule="evenodd" d="M11.5887 38.0565C11.5887 38.0565 21.9415 31.344 19.5191 17.3783C17.1833 7.22433 11.6751 3.89652 11.0696 2.61649C10.4064 1.70637 9.77179 0.113647 9.77179 0.113647L10.2046 28.3573C10.2046 28.3858 9.31041 37.0041 11.5887 38.0565Z" fill="#499D4A"/>
<path fill-rule="evenodd" clip-rule="evenodd" d="M9.16628 38.4263C9.16628 38.4263 -0.552162 31.8843 0.0247011 20.3651C0.572424 8.84565 7.43596 3.18558 8.76237 2.16156C9.62767 1.25143 9.65654 0.910003 9.71428 -0.00012207C10.3197 1.27991 10.2045 19.142 10.2909 21.2468C10.5504 29.353 9.82949 36.8905 9.16628 38.4263Z" fill="white"/>
<path fill-rule="evenodd" clip-rule="evenodd" d="M9.16628 38.4263C9.16628 38.4263 -0.552162 31.8843 0.0247011 20.3651C0.572424 8.84565 7.43596 3.18558 8.76237 2.16156C9.62767 1.25143 9.65654 0.910003 9.71428 -0.00012207C10.3197 1.27991 10.2045 19.142 10.2909 21.2468C10.5504 29.353 9.82949 36.8905 9.16628 38.4263Z" fill="#58AA50"/>
</svg>
