<svg width="104" height="65" viewBox="0 0 104 65" fill="none" xmlns="http://www.w3.org/2000/svg">
<path d="M51.3662 64.8124C51.014 64.8124 50.6853 64.7167 50.3801 64.5492L47.2578 62.6591C46.7883 62.396 47.023 62.3003 47.1639 62.2524C47.7978 62.0371 47.9151 61.9892 48.5725 61.6064C48.6429 61.5586 48.7368 61.5825 48.8072 61.6304L51.2018 63.0898C51.2957 63.1376 51.4131 63.1376 51.4835 63.0898L60.8506 57.5631C60.9445 57.5153 60.9914 57.4196 60.9914 57.3V46.2706C60.9914 46.151 60.9445 46.0553 60.8506 46.0074L51.4835 40.5047C51.3896 40.4568 51.2722 40.4568 51.2018 40.5047L41.8348 46.0074C41.7409 46.0553 41.6939 46.1749 41.6939 46.2706V57.3C41.6939 57.3957 41.7409 57.5153 41.8348 57.5631L44.3937 59.0704C45.7788 59.7882 46.6474 58.9508 46.6474 58.1134V47.2276C46.6474 47.084 46.7648 46.9405 46.9291 46.9405H48.1264C48.2673 46.9405 48.4081 47.0601 48.4081 47.2276V58.1134C48.4081 60.0035 47.3987 61.104 45.6379 61.104C45.098 61.104 44.6754 61.104 43.4781 60.5059L41.0131 59.0704C40.4027 58.7115 40.0271 58.0416 40.0271 57.3239V46.2945C40.0271 45.5768 40.4027 44.9069 41.0131 44.548L50.3801 39.0214C50.9671 38.6864 51.7652 38.6864 52.3522 39.0214L61.7192 44.548C62.3296 44.9069 62.7052 45.5768 62.7052 46.2945V57.3239C62.7052 58.0416 62.3296 58.7115 61.7192 59.0704L52.3522 64.5971C52.047 64.7406 51.6948 64.8124 51.3662 64.8124ZM54.2537 57.2282C50.1454 57.2282 49.3002 55.3142 49.3002 53.6873C49.3002 53.5438 49.4176 53.4002 49.582 53.4002H50.8027C50.9436 53.4002 51.061 53.4959 51.061 53.6395C51.2488 54.9075 51.7887 55.5295 54.2772 55.5295C56.2492 55.5295 57.0944 55.075 57.0944 53.9983C57.0944 53.3763 56.8596 52.9217 53.7842 52.6107C51.2253 52.3475 49.6289 51.7733 49.6289 49.6919C49.6289 47.7539 51.2253 46.6055 53.9016 46.6055C56.9066 46.6055 58.3856 47.6582 58.5734 49.955C58.5734 50.0268 58.5499 50.0986 58.5029 50.1704C58.456 50.2182 58.3856 50.2661 58.3151 50.2661H57.0944C56.977 50.2661 56.8596 50.1704 56.8361 50.0507C56.5544 48.7349 55.8266 48.3042 53.9016 48.3042C51.7418 48.3042 51.4835 49.0698 51.4835 49.644C51.4835 50.3378 51.7887 50.5532 54.6998 50.936C57.5874 51.3187 58.949 51.869 58.949 53.9266C58.9255 56.0319 57.2352 57.2282 54.2537 57.2282Z" fill="#539E43"/>
<path d="M22.3025 21.676C22.3025 21.2454 22.0677 20.8386 21.6921 20.6233L11.7381 14.7856C11.5738 14.6899 11.386 14.6421 11.1982 14.6182H11.1043C10.9165 14.6182 10.7287 14.6899 10.5643 14.7856L0.610384 20.6233C0.234763 20.8386 0 21.2454 0 21.676L0.0234763 37.3707C0.0234763 37.5861 0.140858 37.8014 0.328668 37.8971C0.516479 38.0167 0.751242 38.0167 0.915576 37.8971L6.8316 34.4519C7.20722 34.2366 7.44199 33.8299 7.44199 33.3992V26.0543C7.44199 25.6236 7.67675 25.2169 8.05237 25.0016L10.5643 23.5182C10.7521 23.3986 10.9634 23.3507 11.1747 23.3507C11.386 23.3507 11.5973 23.3986 11.7616 23.5182L14.2736 25.0016C14.6492 25.2169 14.884 25.6236 14.884 26.0543V33.3992C14.884 33.8299 15.1187 34.2366 15.4944 34.4519L21.4104 37.8971C21.5982 38.0167 21.833 38.0167 22.0208 37.8971C22.2086 37.8014 22.326 37.5861 22.326 37.3707L22.3025 21.676Z" fill="#333333"/>
<path d="M70.1472 0.0717747C69.9594 -0.0239249 69.7246 -0.0239249 69.5603 0.0717747C69.3725 0.191399 69.2551 0.382798 69.2551 0.598122V16.1493C69.2551 16.2929 69.1847 16.4364 69.0438 16.5321C68.9029 16.6039 68.7621 16.6039 68.6212 16.5321L66.1327 15.0727C65.7571 14.8574 65.3111 14.8574 64.9355 15.0727L54.9815 20.9343C54.6059 21.1496 54.3711 21.5563 54.3711 21.987V33.6862C54.3711 34.1169 54.6059 34.5236 54.9815 34.7389L64.9355 40.6005C65.3111 40.8159 65.7571 40.8159 66.1327 40.6005L76.0867 34.7389C76.4623 34.5236 76.6971 34.1169 76.6971 33.6862V4.5218C76.6971 4.06723 76.4623 3.66051 76.0867 3.44518L70.1472 0.0717747ZM69.2316 29.8343C69.2316 29.954 69.1847 30.0497 69.0908 30.0975L65.6867 32.1072C65.5928 32.1551 65.4754 32.1551 65.3815 32.1072L61.9774 30.0975C61.8835 30.0497 61.8366 29.93 61.8366 29.8343V25.815C61.8366 25.6953 61.8835 25.5996 61.9774 25.5518L65.3815 23.5421C65.4754 23.4942 65.5928 23.4942 65.6867 23.5421L69.0908 25.5518C69.1847 25.5996 69.2316 25.7193 69.2316 25.815V29.8343Z" fill="#333333"/>
<path d="M103.272 25.7192C103.648 25.5039 103.859 25.0972 103.859 24.6665V21.8194C103.859 21.3888 103.624 20.9821 103.272 20.7667L93.3887 14.9291C93.0131 14.7137 92.5671 14.7137 92.1914 14.9291L82.2375 20.7907C81.8619 21.006 81.6271 21.4127 81.6271 21.8434V33.5426C81.6271 33.9733 81.8619 34.38 82.2375 34.5953L92.121 40.3373C92.4966 40.5526 92.9427 40.5526 93.2948 40.3373L99.2813 36.94C99.4691 36.8443 99.5865 36.629 99.5865 36.4136C99.5865 36.1983 99.4691 35.983 99.2813 35.8873L89.2804 30.0257C89.0926 29.9061 88.9752 29.7147 88.9752 29.4993V25.8388C88.9752 25.6235 89.0926 25.4082 89.2804 25.3125L92.4027 23.4942C92.5905 23.3746 92.8253 23.3746 93.0131 23.4942L96.1354 25.3125C96.3233 25.4321 96.4406 25.6235 96.4406 25.8388V28.7098C96.4406 28.9251 96.558 29.1405 96.7458 29.2362C96.9336 29.3558 97.1684 29.3558 97.3562 29.2362L103.272 25.7192Z" fill="#333333"/>
<path d="M92.6375 25.1688C92.7079 25.121 92.8018 25.121 92.8723 25.1688L94.7738 26.2933C94.8443 26.3411 94.8912 26.4129 94.8912 26.5086V28.7576C94.8912 28.8533 94.8443 28.925 94.7738 28.9729L92.8723 30.0974C92.8018 30.1452 92.7079 30.1452 92.6375 30.0974L90.7359 28.9729C90.6655 28.925 90.6185 28.8533 90.6185 28.7576V26.5086C90.6185 26.4129 90.6655 26.3411 90.7359 26.2933L92.6375 25.1688Z" fill="#539E43"/>
<mask id="mask0_15_1923" style="mask-type:alpha" maskUnits="userSpaceOnUse" x="27" y="14" width="23" height="27">
<path d="M38.9472 14.977C38.5715 14.7617 38.1255 14.7617 37.7499 14.977L27.8664 20.7908C27.4907 21.0061 27.2794 21.4128 27.2794 21.8435V33.4949C27.2794 33.9256 27.5142 34.3323 27.8664 34.5476L37.7499 40.3614C38.1255 40.5767 38.5715 40.5767 38.9472 40.3614L48.8307 34.5476C49.2063 34.3323 49.4176 33.9256 49.4176 33.4949V21.8435C49.4176 21.4128 49.1828 21.0061 48.8307 20.7908L38.9472 14.977Z" fill="white"/>
</mask>
<g mask="url(#mask0_15_1923)">
<path d="M38.9472 14.977C38.5715 14.7617 38.1255 14.7617 37.7499 14.977L27.8664 20.7908C27.4907 21.0061 27.2794 21.4128 27.2794 21.8435V33.4949C27.2794 33.9256 27.5142 34.3323 27.8664 34.5476L37.7499 40.3614C38.1255 40.5767 38.5715 40.5767 38.9472 40.3614L48.8307 34.5476C49.2063 34.3323 49.4176 33.9256 49.4176 33.4949V21.8435C49.4176 21.4128 49.1828 21.0061 48.8307 20.7908L38.9472 14.977Z" fill="url(#paint0_linear_15_1923)"/>
<path d="M48.8542 20.7899L38.9237 14.9762C38.8298 14.9283 38.7124 14.8805 38.6185 14.8566L27.4908 34.2836C27.5847 34.4032 27.702 34.4989 27.8194 34.5707L37.7499 40.3844C38.0316 40.5519 38.3603 40.5997 38.6655 40.504L49.1124 21.0292C49.042 20.9335 48.9481 20.8617 48.8542 20.7899Z" fill="url(#paint1_linear_15_1923)"/>
<path fill-rule="evenodd" clip-rule="evenodd" d="M48.8777 34.5478C49.1594 34.3803 49.3707 34.0932 49.4646 33.7822L38.5716 14.8337C38.2898 14.7858 37.9846 14.8097 37.7264 14.9772L27.8664 20.767L38.5011 40.529C38.642 40.5051 38.8063 40.4572 38.9472 40.3854L48.8777 34.5478Z" fill="url(#paint2_linear_15_1923)"/>
<path fill-rule="evenodd" clip-rule="evenodd" d="M48.8776 34.5473L38.9706 40.3611C38.8298 40.4328 38.6889 40.4807 38.5246 40.5046L38.7124 40.8635L49.6993 34.3799V34.2363L49.4176 33.7578C49.3706 34.0928 49.1594 34.3799 48.8776 34.5473Z" fill="url(#paint3_linear_15_1923)"/>
<path fill-rule="evenodd" clip-rule="evenodd" d="M48.8776 34.5473L38.9706 40.3611C38.8298 40.4328 38.6889 40.4807 38.5246 40.5046L38.7124 40.8635L49.6993 34.3799V34.2363L49.4176 33.7578C49.3706 34.0928 49.1594 34.3799 48.8776 34.5473Z" fill="url(#paint4_linear_15_1923)"/>
</g>
<defs>
<linearGradient id="paint0_linear_15_1923" x1="42.3751" y1="19.3109" x2="31.2472" y2="36.4676" gradientUnits="userSpaceOnUse">
<stop stop-color="#41873F"/>
<stop offset="0.3288" stop-color="#418B3D"/>
<stop offset="0.6352" stop-color="#419637"/>
<stop offset="0.9319" stop-color="#3FA92D"/>
<stop offset="1" stop-color="#3FAE2A"/>
</linearGradient>
<linearGradient id="paint1_linear_15_1923" x1="36.8479" y1="29.0329" x2="64.2108" y2="14.4454" gradientUnits="userSpaceOnUse">
<stop offset="0.1376" stop-color="#41873F"/>
<stop offset="0.4032" stop-color="#54A044"/>
<stop offset="0.7136" stop-color="#66B848"/>
<stop offset="0.9081" stop-color="#6CC04A"/>
</linearGradient>
<linearGradient id="paint2_linear_15_1923" x1="26.9185" y1="27.6697" x2="49.7884" y2="27.6697" gradientUnits="userSpaceOnUse">
<stop offset="0.0919165" stop-color="#6CC04A"/>
<stop offset="0.2864" stop-color="#66B848"/>
<stop offset="0.5968" stop-color="#54A044"/>
<stop offset="0.8624" stop-color="#41873F"/>
</linearGradient>
<linearGradient id="paint3_linear_15_1923" x1="26.9185" y1="37.3302" x2="49.7884" y2="37.3302" gradientUnits="userSpaceOnUse">
<stop offset="0.0919165" stop-color="#6CC04A"/>
<stop offset="0.2864" stop-color="#66B848"/>
<stop offset="0.5968" stop-color="#54A044"/>
<stop offset="0.8624" stop-color="#41873F"/>
</linearGradient>
<linearGradient id="paint4_linear_15_1923" x1="53.1202" y1="18.7599" x2="47.111" y2="49.6577" gradientUnits="userSpaceOnUse">
<stop stop-color="#41873F"/>
<stop offset="0.3288" stop-color="#418B3D"/>
<stop offset="0.6352" stop-color="#419637"/>
<stop offset="0.9319" stop-color="#3FA92D"/>
<stop offset="1" stop-color="#3FAE2A"/>
</linearGradient>
</defs>
</svg>
