<svg width="72" height="65" viewBox="0 0 72 65" fill="none" xmlns="http://www.w3.org/2000/svg">
<path d="M0.212097 32.4293C0.212097 37.8594 5.48904 42.9287 13.8086 45.786C12.1473 54.1901 13.5108 60.9638 18.0654 63.6032C22.747 66.316 29.7215 64.4382 36.3412 58.6239C42.7938 64.2035 49.3154 66.3993 53.8657 63.7524C58.5428 61.0318 59.9654 53.7987 58.2581 45.1322C66.9234 42.2534 71.7705 37.9309 71.7705 32.4293C71.7705 27.1251 66.4837 22.5362 58.2764 19.6971C60.1144 10.6725 58.557 4.06318 53.8139 1.31476C49.2411 -1.33489 42.6438 0.97455 36.0962 6.70029C29.2846 0.622869 22.7524 -1.23265 18.0139 1.52379C13.4455 4.18097 12.1419 11.0777 13.8086 19.6375C5.76996 22.4537 0.212097 27.1463 0.212097 32.4293Z" fill="white"/>
<path d="M56.5381 22.5164C55.8789 22.2884 55.1958 22.0727 54.4924 21.8687C54.608 21.3946 54.7141 20.9266 54.8084 20.4666C56.357 12.9132 55.3445 6.82815 51.887 4.82469C48.5718 2.90364 43.1499 4.90664 37.674 9.69513C37.1475 10.1556 36.6194 10.6431 36.0916 11.154C35.7399 10.816 35.3888 10.4893 35.0386 10.1768C29.2998 5.05668 23.5474 2.89898 20.0934 4.90824C16.7813 6.83486 15.8004 12.5554 17.1944 19.7138C17.329 20.4052 17.4863 21.1113 17.6643 21.8292C16.8501 22.0614 16.0642 22.309 15.3122 22.5724C8.584 24.9294 4.28708 28.6235 4.28708 32.4553C4.28708 36.4128 8.89983 40.3822 15.9078 42.7891C16.4608 42.979 17.0346 43.1586 17.626 43.3291C17.4341 44.1055 17.2671 44.8664 17.1269 45.6085C15.7978 52.6427 16.8358 58.2281 20.1391 60.1425C23.5511 62.1196 29.2774 60.0874 34.8533 55.1898C35.294 54.8027 35.7363 54.3921 36.1794 53.9618C36.7537 54.5175 37.3271 55.0434 37.8974 55.5367C43.2984 60.2069 48.6327 62.0927 51.933 60.1729C55.3416 58.1901 56.4493 52.1901 55.0112 44.89C54.9013 44.3325 54.7735 43.7629 54.6299 43.1833C55.0321 43.0638 55.4269 42.9405 55.8118 42.8122C63.0972 40.3867 67.8373 36.4656 67.8373 32.4553C67.8373 28.6097 63.4018 24.8907 56.5381 22.5164Z" fill="#53C1DE"/>
<path d="M54.958 40.2229C54.6105 40.3385 54.254 40.4502 53.8906 40.5586C53.0864 38.0001 52.0009 35.2795 50.6725 32.4687C51.9401 29.7248 52.9836 27.039 53.7654 24.4971C54.4155 24.6861 55.0465 24.8855 55.6545 25.0959C61.5353 27.1302 65.1225 30.1379 65.1225 32.4554C65.1225 34.924 61.2484 38.1285 54.958 40.2229ZM52.3479 45.4199C52.9839 48.6479 53.0747 51.5663 52.6535 53.8478C52.275 55.8979 51.5138 57.2647 50.5726 57.8121C48.5699 58.977 44.287 57.4628 39.668 53.4689C39.1385 53.011 38.6051 52.5222 38.0701 52.0048C39.8607 50.0369 41.6504 47.7491 43.3971 45.2084C46.4693 44.9344 49.3718 44.4866 52.0039 43.8752C52.1336 44.4007 52.2487 44.916 52.3479 45.4199ZM25.9528 57.6108C23.9961 58.3052 22.4377 58.3251 21.4956 57.7793C19.491 56.6175 18.6577 52.133 19.7944 46.1174C19.9246 45.4284 20.0796 44.7208 20.2582 43.9974C22.8615 44.5758 25.7428 44.9921 28.8223 45.2429C30.5807 47.7291 32.4221 50.0144 34.2777 52.0153C33.8722 52.4086 33.4684 52.783 33.0668 53.1358C30.6012 55.3015 28.1303 56.838 25.9528 57.6108ZM16.7858 40.2078C13.687 39.1436 11.1279 37.7604 9.37382 36.251C7.79762 34.8946 7.00183 33.548 7.00183 32.4554C7.00183 30.1301 10.4518 27.1643 16.2058 25.1484C16.904 24.9038 17.6349 24.6733 18.3933 24.4568C19.1885 27.0561 20.2317 29.7737 21.4906 32.5218C20.2154 35.3107 19.1574 38.0716 18.3544 40.7013C17.8137 40.5452 17.2899 40.3808 16.7858 40.2078ZM19.8587 19.19C18.6644 13.0568 19.4575 8.43022 21.4535 7.26925C23.5796 6.03246 28.2809 7.79586 33.236 12.2169C33.5527 12.4994 33.8707 12.7952 34.1895 13.1012C32.3431 15.0934 30.5186 17.3615 28.7758 19.833C25.787 20.1114 22.926 20.5585 20.2955 21.1573C20.1301 20.4888 19.9837 19.8321 19.8587 19.19ZM47.2714 25.9916C46.6426 24.9002 45.997 23.8346 45.3389 22.7981C47.3665 23.0556 49.3092 23.3975 51.1336 23.8159C50.5859 25.5798 49.9032 27.424 49.0996 29.3146C48.5231 28.2149 47.9134 27.1061 47.2714 25.9916ZM36.0925 15.0508C37.3448 16.4139 38.5988 17.9359 39.8322 19.5872C38.5893 19.5283 37.331 19.4976 36.0622 19.4976C34.8055 19.4976 33.5564 19.5276 32.3212 19.5855C33.5559 17.9496 34.8207 16.4296 36.0925 15.0508ZM24.8421 26.0105C24.214 27.1049 23.6156 28.2077 23.0482 29.3125C22.2576 27.4285 21.5812 25.5759 21.0288 23.7871C22.8419 23.3793 24.7755 23.046 26.7902 22.7933C26.1228 23.8393 25.4719 24.9128 24.8421 26.0102V26.0105ZM26.8483 42.3121C24.7667 42.0787 22.804 41.7625 20.9913 41.366C21.5526 39.5452 22.2439 37.6531 23.0512 35.7285C23.6201 36.8325 24.2209 37.9357 24.8528 39.0326H24.853C25.4967 40.1501 26.1637 41.2447 26.8483 42.3121ZM36.1677 50.0523C34.8809 48.6573 33.5975 47.1142 32.344 45.4543C33.5608 45.5023 34.8014 45.5269 36.0622 45.5269C37.3575 45.5269 38.6381 45.4975 39.8984 45.4412C38.6609 47.1309 37.4114 48.6764 36.1677 50.0523ZM49.1255 35.6304C49.9749 37.5758 50.691 39.4581 51.2595 41.2478C49.4169 41.6702 47.4275 42.0104 45.3314 42.2632C45.9911 41.2127 46.6423 40.1288 47.2822 39.0139C47.9296 37.8858 48.5443 36.7561 49.1255 35.6304ZM44.9306 37.651C43.9372 39.3818 42.9173 41.034 41.882 42.5936C39.9962 42.7291 38.0479 42.7989 36.0622 42.7989C34.0846 42.7989 32.1609 42.7372 30.3084 42.6164C29.2313 41.0363 28.1893 39.3792 27.2022 37.6659H27.2024C26.218 35.9573 25.3119 34.2342 24.4909 32.5209C25.3117 30.8035 26.2154 29.0785 27.1942 27.373L27.194 27.3733C28.1754 25.6632 29.2083 24.0142 30.2754 22.444C32.1654 22.3004 34.1035 22.2255 36.0621 22.2255H36.0622C38.0297 22.2255 39.9702 22.301 41.8597 22.4458C42.9105 24.0045 43.9364 25.6482 44.9217 27.3585C45.9181 29.0881 46.8335 30.8016 47.6613 32.4821C46.836 34.1915 45.9227 35.9223 44.9306 37.651ZM50.531 7.18809C52.6591 8.42124 53.4867 13.3945 52.1496 19.9161C52.0643 20.3322 51.9683 20.7561 51.864 21.1856C49.2274 20.5743 46.3644 20.1194 43.3669 19.8369C41.6207 17.3382 39.8111 15.0666 37.9947 13.0999C38.4831 12.6279 38.9707 12.1778 39.4563 11.753C44.1481 7.65025 48.5331 6.03041 50.531 7.18809Z" fill="white"/>
<path d="M36.0622 26.7529C39.1963 26.7529 41.737 29.3058 41.737 32.4552C41.737 35.6044 39.1963 38.1574 36.0622 38.1574C32.9281 38.1574 30.3874 35.6044 30.3874 32.4552C30.3874 29.3058 32.9281 26.7529 36.0622 26.7529Z" fill="#53C1DE"/>
</svg>
